<svg xmlns="http://www.w3.org/2000/svg" version="1.1" xmlns:xlink="http://www.w3.org/1999/xlink" xmlns:svgjs="http://svgjs.dev/svgjs" width="2000" height="1010" viewBox="0 0 2000 1010"><g transform="matrix(1,0,0,1,-1.2121212121212466,-0.014556335877898618)"><svg viewBox="0 0 396 200" data-background-color="#eae5df" preserveAspectRatio="xMidYMid meet" height="1010" width="2000" xmlns="http://www.w3.org/2000/svg" xmlns:xlink="http://www.w3.org/1999/xlink"><g id="tight-bounds" transform="matrix(1,0,0,1,0.2400000000000091,0.002882442748102676)"><svg viewBox="0 0 395.52 199.9942351145038" height="199.9942351145038" width="395.52"><g><svg viewBox="0 0 395.52 199.9942351145038" height="199.9942351145038" width="395.52"><g><svg viewBox="0 0 395.52 199.9942351145038" height="199.9942351145038" width="395.52"><g id="textblocktransform"><svg viewBox="0 0 395.52 199.9942351145038" height="199.9942351145038" width="395.52" id="textblock"><g><svg viewBox="0 0 395.52 199.9942351145038" height="199.9942351145038" width="395.52"><g transform="matrix(1,0,0,1,0,0)"><svg width="395.52" viewBox="2.27 -40.43 79.95 40.43" height="199.9942351145038" data-palette-color="#000000"><path d="M15.94-17.38L15.94-19.14 26.15-19.14Q28.66-19.14 30.41-20.84 32.15-22.53 32.15-25.63L32.15-25.63Q32.15-27.95 30.32-29.8 28.49-31.64 26.15-31.64L26.15-31.64 11.06-31.64 11.06 0 9.3 0 9.3-33.4 26.15-33.4Q29.22-33.4 31.57-31.03 33.91-28.66 33.91-25.63L33.91-25.63Q33.91-21.9 31.64-19.64 29.37-17.38 26.15-17.38L26.15-17.38 15.94-17.38ZM15.94-13.87L15.94-15.63 26.15-15.63Q28.69-15.63 30.85-16.86 33.01-18.09 34.34-20.41 35.67-22.73 35.67-25.63L35.67-25.63Q35.67-29.39 32.8-32.28 29.93-35.16 26.15-35.16L26.15-35.16 7.54-35.16 7.54 0 5.79 0 5.79-36.91 26.15-36.91Q29.1-36.91 31.71-35.35 34.33-33.79 35.88-31.18 37.43-28.56 37.43-25.63L37.43-25.63Q37.43-22.31 35.86-19.59 34.3-16.87 31.73-15.37 29.15-13.87 26.15-13.87L26.15-13.87 15.94-13.87ZM15.94-10.35L15.94-12.11 26.15-12.11Q28.76-12.11 31.15-13.15 33.54-14.18 35.31-15.95 37.08-17.72 38.13-20.25 39.18-22.78 39.18-25.63L39.18-25.63Q39.18-29.05 37.4-32.07 35.62-35.08 32.6-36.88 29.59-38.67 26.15-38.67L26.15-38.67 4.03-38.67 4.03 0 2.27 0 2.27-40.43 26.15-40.43Q30.05-40.43 33.47-38.39 36.89-36.35 38.92-32.93 40.94-29.52 40.94-25.63L40.94-25.63Q40.94-22.17 39.75-19.25 38.55-16.33 36.52-14.4 34.5-12.48 31.81-11.41 29.13-10.35 26.15-10.35L26.15-10.35 15.94-10.35ZM14.58-28.13L14.58 0 12.82 0 12.82-29.88 26.15-29.88Q27.88-29.88 29.14-28.61 30.4-27.34 30.4-25.63L30.4-25.63Q30.4-20.9 26.15-20.9L26.15-20.9 15.94-20.9 15.94-22.66 26.15-22.66Q27.32-22.66 27.98-23.32 28.64-23.97 28.64-25.63L28.64-25.63Q28.64-26.71 27.92-27.42 27.2-28.13 26.15-28.13L26.15-28.13 14.58-28.13ZM57.1-40.43L57.1 0 55.34 0 55.34-40.43 57.1-40.43ZM53.59-40.43L53.59 0 51.83 0 51.83-40.43 53.59-40.43ZM50.07-40.43L50.07 0 48.31 0 48.31-40.43 50.07-40.43ZM46.56-40.43L46.56 0 44.8 0 44.8-40.43 46.56-40.43ZM80.27 0L69.94-20.21 80.27-40.43 82.22-40.43 71.9-20.21 82.22 0 80.27 0ZM76.34 0L66.01-20.21 76.34-40.43 78.29-40.43 67.97-20.21 78.29 0 76.34 0ZM72.41 0L62.08-20.21 72.41-40.43 74.36-40.43 64.04-20.21 74.36 0 72.41 0ZM68.48 0L58.13-20.21 68.48-40.43 70.43-40.43 60.08-20.21 70.43 0 68.48 0Z" opacity="1" transform="matrix(1,0,0,1,0,0)" fill="#ffffff" class="wordmark-text-0" data-fill-palette-color="primary" id="text-0"></path></svg></g></svg></g></svg></g></svg></g></svg></g><defs></defs></svg><rect width="395.52" height="199.9942351145038" fill="none" stroke="none" visibility="hidden"></rect></g></svg></g></svg>